<svg width="338" height="51" viewBox="0 0 338 51" fill="none" xmlns="http://www.w3.org/2000/svg">
<path fill-rule="evenodd" clip-rule="evenodd" d="M27.6301 0.0796735C26.7024 0.324496 25.9007 1.08547 25.6354 1.97294C25.5252 2.34133 25.5195 3.11449 25.624 3.49963C25.7461 3.94965 26.0381 4.42766 26.3949 4.76172C26.5766 4.9318 26.7252 5.08392 26.7252 5.09979C26.7252 5.11567 26.6318 5.38673 26.5176 5.70215L26.31 6.27568L25.9701 6.27585C25.411 6.27618 24.3934 6.3804 23.468 6.53202C22.9893 6.61051 22.5685 6.67797 22.5329 6.68188C22.4974 6.68585 22.0896 6.1558 21.6265 5.50407L20.7848 4.31909L20.9644 4.09863C21.426 3.5321 21.5853 3.06477 21.545 2.39507C21.4966 1.59038 21.1338 0.955346 20.4886 0.546115C20.0351 0.258358 19.5488 0.136167 18.9928 0.170118C18.6 0.194093 18.3753 0.26453 16.8413 0.844674C15.8993 1.20099 15.0293 1.54216 14.9079 1.6029C14.5631 1.77552 14.1076 2.23408 13.9253 2.5921C13.08 4.25212 14.2609 6.09689 16.1384 6.04954L16.5867 6.03824L16.7997 7.43536C16.9998 8.74732 17.0068 8.83579 16.9147 8.88638C16.8608 8.91598 16.4874 9.157 16.0849 9.42188C15.1507 10.0368 14.3122 10.6996 13.5052 11.4609L12.8664 12.0636L12.0319 11.7134L11.1974 11.3631L11.1655 10.8448C11.1391 10.4169 11.1028 10.2635 10.9567 9.96433C10.7411 9.52252 10.2918 9.08667 9.8357 8.8769C9.54351 8.74253 9.45085 8.72831 8.8668 8.72831C8.2832 8.72831 8.18992 8.74258 7.89891 8.87646C7.37416 9.11781 7.20703 9.28013 6.37948 10.3522C5.47988 11.5176 5.29725 11.834 5.2216 12.3581C5.07525 13.3725 5.58427 14.3347 6.50196 14.7781C6.85301 14.9477 6.90204 14.9563 7.51781 14.9563C8.12 14.9563 8.18818 14.9451 8.50177 14.7942C8.68709 14.7051 8.85613 14.6307 8.87736 14.6289C8.92386 14.625 9.98997 15.8453 9.98997 15.9025C9.98997 15.9245 9.879 16.1546 9.74338 16.4139C8.93784 17.9538 8.2189 20.0564 7.96613 21.6114C7.897 22.0368 7.89593 22.0387 7.69382 22.0916C7.34159 22.1839 5.06621 22.7 5.01168 22.7C4.98298 22.7 4.85247 22.5403 4.72168 22.345C4.29824 21.7129 3.6915 21.3218 2.94667 21.2006C1.89903 21.0303 0.790688 21.5923 0.308342 22.5385C0.00519776 23.1332 -0.013615 23.3112 0.00508577 25.4087C0.0212033 27.2232 0.0271561 27.3148 0.147841 27.6053C0.403419 28.2207 0.95265 28.7575 1.56618 28.9916C2.00366 29.1586 2.75472 29.1923 3.22909 29.0662C4.05002 28.8481 4.71174 28.2101 4.98927 27.3689C5.0401 27.2149 5.08261 27.1674 5.15135 27.188C5.20262 27.2033 5.80054 27.3418 6.48006 27.4957C7.15958 27.6497 7.75767 27.7879 7.80916 27.8029C7.87611 27.8225 7.92204 27.9434 7.97068 28.2276C8.13646 29.1972 8.2905 29.4816 8.70967 29.5924C9.01641 29.6735 9.32095 29.5786 9.54003 29.3337C9.70626 29.148 9.71665 29.1121 9.69598 28.7971C9.66173 28.2753 9.43187 27.1034 9.3223 26.8917C9.10194 26.4662 9.03224 26.4405 6.62046 25.8937C4.22703 25.3511 4.04104 25.3301 3.77563 25.5734C3.54302 25.7867 3.47569 25.9723 3.47434 26.4038C3.47277 26.9209 3.34383 27.2127 3.02569 27.4193C2.58007 27.7087 2.01393 27.5787 1.72343 27.1203C1.59465 26.917 1.59432 26.9113 1.61442 25.2078C1.63256 23.6674 1.64492 23.4792 1.74022 23.2957C2.14849 22.5098 3.22977 22.637 3.46973 23.4992C3.50349 23.6205 3.53123 23.7882 3.5314 23.8721C3.53162 23.9674 3.60131 24.099 3.71773 24.2236C4.03025 24.5583 4.14667 24.5489 6.56784 23.9936C7.72414 23.7285 8.76352 23.4656 8.87758 23.4094C9.25704 23.2226 9.36403 23.014 9.51515 22.1667C9.86631 20.1979 10.4123 18.6175 11.3431 16.8762C11.6893 16.2283 11.7309 16.1173 11.7309 15.8401C11.7309 15.6604 11.6922 15.4561 11.639 15.3552C11.4942 15.0804 9.44501 12.7493 9.28557 12.678C9.0907 12.5908 8.72545 12.5973 8.54052 12.6912C8.45673 12.7337 8.28045 12.8939 8.1487 13.0473C7.87762 13.3628 7.63328 13.4628 7.33232 13.3812C6.98829 13.2879 6.75647 12.9224 6.82246 12.5772C6.84599 12.4541 7.11948 12.0505 7.61154 11.4128C8.22979 10.6115 8.40613 10.4185 8.59679 10.3344C8.79183 10.2483 8.86287 10.2419 9.04033 10.2941C9.48134 10.4238 9.69963 10.8986 9.49516 11.2836C9.43254 11.4015 9.37543 11.5693 9.3683 11.6564C9.31697 12.2818 9.4057 12.3523 11.1974 13.108C12.0286 13.4586 12.7684 13.7369 12.915 13.7542C13.3305 13.8032 13.5747 13.6533 14.4272 12.8264C15.5294 11.7574 16.8059 10.7917 17.979 10.1395C18.3523 9.93203 18.5456 9.70727 18.6353 9.3763C18.6904 9.17292 18.6541 8.84995 18.3565 6.89611C17.9994 4.55101 17.9876 4.50587 17.6722 4.27477C17.4666 4.12414 17.0635 4.13969 16.6318 4.31484C15.8886 4.61654 15.3406 4.38501 15.2848 3.74578C15.2599 3.46111 15.3862 3.20565 15.629 3.04951C15.9158 2.86509 18.9622 1.75623 19.1809 1.75661C19.5761 1.75727 19.929 2.10263 19.9297 2.48926C19.9303 2.85523 19.7485 3.09591 19.3056 3.31566C18.9512 3.49148 18.7909 3.75052 18.8196 4.10133C18.8407 4.36042 18.9266 4.49893 20.0661 6.11303C20.7392 7.06642 21.3676 7.92677 21.4627 8.02493C21.6803 8.24969 22.046 8.39018 22.3272 8.35711C22.445 8.34322 22.8573 8.26716 23.2434 8.18813C24.0517 8.02261 25.1823 7.89464 26.2874 7.84349C26.9849 7.81125 27.0778 7.79466 27.2791 7.66657C27.4012 7.58886 27.5527 7.43514 27.6158 7.32496C27.7692 7.05721 28.5788 4.81303 28.5772 4.66014C28.5766 4.59378 28.5286 4.43714 28.4707 4.31198C28.3841 4.12481 28.3071 4.05773 28.0367 3.93389C27.3218 3.60639 27.0153 3.06913 27.1959 2.45961C27.3217 2.03489 27.7113 1.68959 28.1823 1.58537C28.3808 1.54139 29.4724 1.65443 29.8874 1.7619C30.1516 1.83036 30.5145 2.14479 30.6663 2.43684C30.8341 2.75954 30.7931 3.26203 30.5738 3.57266C30.4118 3.802 30.024 4.07107 29.8555 4.07107C29.7175 4.07107 29.4143 4.34857 29.3262 4.55553C29.2556 4.72126 29.2632 4.88385 29.3946 6.01862C29.5656 7.49599 29.5975 7.64425 29.794 7.87347C29.9952 8.10815 30.1257 8.16415 30.9933 8.38814C32.3958 8.75025 33.4906 9.16708 34.7945 9.83552C35.5196 10.2072 35.6206 10.244 35.9186 10.244C36.1242 10.244 36.313 10.2081 36.4262 10.1475C36.7434 9.97794 39.9925 7.35831 40.0997 7.1858C40.2336 6.9703 40.2313 6.62445 40.0943 6.4041C40.0347 6.30803 39.8205 6.09937 39.6183 5.94041C39.1724 5.58972 39.036 5.31838 39.1312 4.97132C39.2674 4.47501 39.8584 4.24622 40.3086 4.51557C40.4129 4.57796 41.0928 5.09252 41.8195 5.65905C43.1718 6.71335 43.292 6.8389 43.292 7.19792C43.292 7.4212 43.1106 7.7202 42.9023 7.84018C42.6263 7.99924 42.3281 7.97444 41.9852 7.76385C41.5922 7.5225 41.2959 7.49119 40.9919 7.65885C40.7269 7.80507 40.7981 7.67274 39.5648 10.3098C38.74 12.0732 38.699 12.2152 38.8861 12.657C38.9829 12.8857 39.4755 13.4068 39.7091 13.5276C40.1667 13.7642 40.7488 13.4616 40.8495 12.9347C40.8863 12.7419 40.7765 12.4167 40.5913 12.1705C40.5399 12.1021 40.6473 11.8289 41.1331 10.7926L41.7389 9.49992H42.4478C43.1531 9.49992 43.1588 9.49893 43.5814 9.29407C44.9236 8.64365 45.3344 6.95624 44.4407 5.76426C44.1503 5.37686 41.4725 3.29168 40.9334 3.03303C40.5258 2.83748 40.4921 2.83097 39.8915 2.83097C39.2872 2.83097 39.2596 2.83643 38.8437 3.03815C38.3444 3.28033 37.9385 3.6792 37.6942 4.16763C37.5471 4.46173 37.5358 4.53183 37.5358 5.14582C37.5358 5.85829 37.5997 6.08256 37.941 6.56757C38.0704 6.7516 38.0782 6.7866 38.0056 6.85775C37.9603 6.90229 37.4611 7.30501 36.8964 7.75272L35.8696 8.56677L35.1302 8.20433C33.9722 7.63659 32.5963 7.13564 31.3505 6.82816L31.1181 6.77078L31.0523 6.20629C31.0161 5.89588 30.9768 5.57985 30.9649 5.50407C30.9468 5.38893 31 5.32555 31.2883 5.11826C31.9169 4.66648 32.3289 3.90864 32.382 3.10655C32.4363 2.28616 32.1509 1.5264 31.5767 0.962841C31.0189 0.415436 30.5354 0.21399 29.4513 0.0772489C28.6284 -0.0265332 28.0294 -0.0257621 27.6301 0.0796735ZM27.8765 11.3867C27.3805 11.5085 27.1368 12.159 27.4252 12.5911C27.622 12.8858 27.8135 12.9442 28.5842 12.9444C29.2267 12.9446 29.3095 12.9331 29.4827 12.8195C30.0118 12.4726 29.9759 11.7226 29.4169 11.4428C29.2652 11.3669 29.0931 11.3478 28.6065 11.3528C28.2668 11.3563 27.9383 11.3715 27.8765 11.3867ZM20.7885 12.7296C17.9893 13.0495 15.4855 15.2688 14.9269 17.9253C14.544 19.7464 15.1217 21.5409 16.4383 22.6199C16.897 22.9958 17.782 23.4346 18.3857 23.5853C19.6616 23.9039 21.3015 23.7209 22.5695 23.1185C23.1072 22.8631 23.2434 22.6969 23.2434 22.2967C23.2434 21.9528 23.1118 21.7353 22.8197 21.5966C22.5019 21.4456 22.3683 21.458 21.8605 21.6862C19.1079 22.9233 16.4091 21.5916 16.4313 19.0073C16.4493 16.9095 18.3255 14.8384 20.631 14.3715C21.5661 14.182 22.3832 14.2727 23.1697 14.6531C24.8456 15.4639 25.346 17.4225 24.3618 19.3196C24.0014 20.0144 23.9944 20.2884 24.3278 20.6476C24.5923 20.9326 25.1581 20.9188 25.4452 20.6203C25.8222 20.2283 26.2747 19.128 26.4233 18.2419C26.7083 16.5419 26.0727 14.7902 24.8004 13.7692C24.3959 13.4446 23.4791 12.988 22.9907 12.8677C22.2515 12.6858 21.5545 12.6421 20.7885 12.7296ZM46.594 13.2715C45.6338 13.5728 44.9032 14.4114 44.7419 15.3974C44.7072 15.6095 44.675 15.7885 44.6704 15.7951C44.6593 15.8111 43.5392 15.976 43.4417 15.976C43.4001 15.976 43.2124 15.7197 43.0247 15.4065C42.8369 15.0932 42.616 14.7937 42.5338 14.7409C42.1952 14.5231 41.7537 14.5798 41.4621 14.8786C41.3164 15.0278 41.2987 15.0838 41.3011 15.3871C41.3037 15.7115 41.3247 15.7625 41.7372 16.4445C42.2479 17.2888 42.366 17.4236 42.707 17.5514C42.9588 17.6458 42.9874 17.6441 44.4239 17.4479C46.0085 17.2315 46.1511 17.1875 46.3357 16.8578C46.4452 16.6623 46.4453 16.6492 46.3453 15.9478C46.2744 15.4504 46.6593 14.8976 47.1706 14.7625C47.6398 14.6385 48.2207 14.9096 48.4532 15.3613C48.6439 15.7316 49.1887 17.2371 49.1883 17.3929C49.187 18.0747 48.5425 18.6459 47.8956 18.5386C47.6151 18.4921 47.2882 18.2788 47.0982 18.0184C47.0141 17.9031 46.8526 17.7656 46.7394 17.7128C46.3575 17.535 46.1925 17.6016 44.9248 18.4456C44.2896 18.8685 43.6956 19.3047 43.6047 19.4149C43.3597 19.712 43.3513 20.0702 43.5692 20.9363C43.8944 22.2295 44.1209 24.3524 44.0427 25.3731C44.0014 25.9124 44.0722 26.1952 44.3164 26.4657C44.4726 26.6387 44.8022 26.798 46.5617 27.5513C47.696 28.0369 48.6982 28.4487 48.789 28.4666C49.0064 28.5092 49.3121 28.4061 49.4925 28.2291C49.6391 28.0852 49.6883 27.9503 49.8068 27.3678C49.957 26.6294 50.6608 26.3421 51.1628 26.8141C51.4761 27.1088 51.4749 27.1524 51.098 29.043C50.9093 29.9895 50.7189 30.8324 50.6749 30.9159C50.4089 31.4208 49.719 31.4844 49.3706 31.036C49.2314 30.8569 49.2164 30.793 49.2134 30.3653C49.2092 29.7768 49.1124 29.5676 48.7775 29.4241C48.5502 29.3267 48.472 29.3268 46.2711 29.4283C45.0217 29.4859 43.9208 29.5586 43.8247 29.5897C43.5109 29.6914 43.2582 30.0121 43.065 30.554C42.7774 31.3607 42.3579 32.2818 41.9326 33.0402C41.4897 33.8301 41.4053 34.1775 41.5653 34.5532C41.6508 34.7541 43.3975 36.8359 43.6995 37.0969C43.8993 37.2696 44.2573 37.3412 44.4884 37.2548C44.5749 37.2224 44.7392 37.124 44.8534 37.0363C45.2717 36.7148 45.6766 36.6885 46.1406 36.9529C46.6035 37.2167 46.8232 37.887 46.5908 38.3265C46.4499 38.593 45.831 39.3521 45.6446 39.4871C45.1906 39.8158 44.6114 39.7724 44.2112 39.3797C43.8964 39.0707 43.8169 38.7831 43.9109 38.2927C43.9906 37.8771 43.9352 37.6191 43.7256 37.4293C43.657 37.3672 42.9294 37.0287 42.1086 36.6772C40.5178 35.9957 40.3099 35.9426 39.9067 36.1153C39.8073 36.1579 39.3718 36.5361 38.939 36.9558C37.9824 37.8835 37.2182 38.4932 36.216 39.1284C35.2905 39.7151 35.0169 39.9569 34.9202 40.2737C34.8536 40.492 34.8781 40.6926 35.2264 42.7801C35.4479 44.1082 35.6397 45.1018 35.6889 45.1759C35.8171 45.3692 36.1067 45.5174 36.3564 45.5174C36.48 45.5174 36.7706 45.4439 37.0023 45.3541C37.6101 45.1185 37.8538 45.145 38.1741 45.4816C38.4616 45.7836 38.3647 46.3906 37.9931 46.6145C37.6275 46.8347 34.674 47.9558 34.4566 47.9568C34.2112 47.958 34.0031 47.8285 33.8153 47.5576C33.5489 47.1735 33.7343 46.7121 34.2683 46.4298C34.6992 46.202 34.8337 45.9949 34.8011 45.6092C34.7776 45.3316 34.7175 45.2376 33.4478 43.4945C32.5086 42.205 32.0597 41.6343 31.9166 41.5475C31.6242 41.3701 31.3095 41.3539 30.7341 41.4864C28.387 42.0269 25.7585 42.0998 23.5524 41.6855C23.3153 41.641 23.0286 41.6051 22.9155 41.6058C22.6651 41.6073 22.3032 41.7641 22.1402 41.9418C21.9233 42.1782 19.5219 45.9266 19.4702 46.1094C19.3588 46.5035 19.6113 46.9061 20.0858 47.0908C20.2177 47.1422 20.414 47.2854 20.5218 47.409C20.7942 47.7214 20.8573 47.9848 20.7749 48.4664C20.6324 49.2992 20.5314 49.4618 20.164 49.4495C19.9859 49.4436 17.3944 48.5527 16.7571 48.2784C16.1004 47.9957 15.8678 47.1869 16.2817 46.6261C16.5879 46.2112 17.0751 46.059 17.6179 46.2085C17.8312 46.2672 18.0337 46.2889 18.1569 46.2662C18.3955 46.2223 18.6581 46.0162 18.7405 45.8082C18.7738 45.7243 18.9196 44.594 19.0647 43.2966C19.3516 40.7302 19.3515 40.6875 19.0598 40.3472C18.9843 40.2592 18.649 40.0368 18.3145 39.853C16.8648 39.0562 15.6877 38.1907 14.4325 36.9985C13.6367 36.2426 13.4076 36.0931 13.0455 36.0931C12.8187 36.0931 8.91611 37.631 8.73472 37.7918C8.46835 38.0279 8.40495 38.4024 8.56489 38.7946C8.68148 39.0806 8.64503 39.4945 8.48374 39.7168C8.16953 40.1499 7.47042 40.1801 7.08719 39.7772C6.82953 39.5064 5.94049 38.206 5.88147 38.0136C5.68923 37.3869 6.3409 36.732 6.97207 36.9176C7.09067 36.9525 7.3257 37.1036 7.49434 37.2535C7.77648 37.5043 7.8236 37.5261 8.08395 37.5261C8.23962 37.5261 8.43657 37.4907 8.52171 37.4475C8.71208 37.3509 11.3233 34.4615 11.4762 34.1783C11.6952 33.7727 11.6408 33.5368 11.0624 32.3815C10.548 31.354 10.5397 31.3418 10.2865 31.2319C9.87541 31.0534 9.4901 31.1667 9.25413 31.5352C9.07004 31.8227 9.13187 32.151 9.52054 32.9511L9.85502 33.6397L8.95413 34.6367L8.05323 35.6337L7.74402 35.4934C7.32749 35.3044 6.44653 35.2602 5.99373 35.4056C4.54248 35.8715 3.82235 37.4666 4.45167 38.8213C4.62952 39.2041 5.67738 40.6687 5.9894 40.9706C6.48725 41.4523 7.20585 41.697 7.96826 41.6443C8.50244 41.6074 8.92172 41.4515 9.32545 41.1395C9.91685 40.6826 10.2085 40.1196 10.2645 39.3268L10.2988 38.8403L11.6048 38.3152L12.9108 37.7901L13.5314 38.3738C13.8727 38.6948 14.4222 39.1711 14.7526 39.4323C15.406 39.9489 16.7893 40.8725 17.3045 41.1363C17.5685 41.2714 17.6273 41.327 17.6274 41.4416C17.6275 41.5187 17.5519 42.2503 17.4595 43.0675C17.367 43.8846 17.2912 44.5594 17.291 44.567C17.2908 44.5746 17.1688 44.5808 17.02 44.5808C16.4757 44.5808 15.8101 44.8522 15.3425 45.2648C14.4352 46.0654 14.1902 47.3778 14.7415 48.4837C14.93 48.8618 15.4641 49.4229 15.8126 49.6089C15.9614 49.6883 16.854 50.0334 17.796 50.3756L19.5089 50.9979L20.1547 50.9999C20.7483 51.0016 20.826 50.9895 21.1164 50.8495C21.7259 50.5557 22.1726 49.9287 22.2853 49.2088C22.3161 49.0127 22.37 48.6743 22.4053 48.4568C22.5243 47.7232 22.2616 46.9013 21.723 46.323C21.5708 46.1596 21.4463 46.007 21.4463 45.9838C21.4463 45.9606 21.842 45.3353 22.3255 44.5941L23.2047 43.2467L23.4346 43.283C24.682 43.48 25.0112 43.5023 26.6691 43.5023C28.009 43.5022 28.5347 43.4809 29.0839 43.4043C29.7974 43.3047 30.8766 43.112 31.0173 43.059C31.0689 43.0396 31.3849 43.4281 31.9674 44.2274L32.8401 45.425L32.6565 45.6354C31.76 46.6634 31.9353 48.2585 33.0348 49.0765C33.4991 49.422 33.9951 49.5622 34.6335 49.5287C35.1004 49.5041 35.1931 49.4747 36.8307 48.829C38.7765 48.0619 38.798 48.0522 39.1245 47.7927C40.0218 47.0794 40.2436 45.6705 39.6131 44.6902C39.1508 43.9715 38.1873 43.5181 37.3252 43.6136C37.1475 43.6332 37.0023 43.6348 37.0023 43.6171C37.0023 43.5994 36.9008 42.9736 36.7767 42.2263C36.6527 41.4791 36.5706 40.8512 36.5942 40.8308C36.6179 40.8105 36.9405 40.5936 37.3111 40.3487C38.2017 39.7604 39.0492 39.0879 39.8388 38.3429C40.3116 37.8968 40.509 37.7441 40.5788 37.7704C40.6311 37.7901 41.0202 37.9556 41.4433 38.1382L42.2127 38.4701L42.2521 38.8308C42.3301 39.5462 42.613 40.1077 43.1433 40.5999C43.652 41.0721 44.2289 41.2846 44.9939 41.2817C46.1447 41.2773 46.8789 40.7875 47.8434 39.3807C48.5883 38.2941 48.3822 36.7005 47.3867 35.8502C46.6586 35.2282 45.4348 35.0079 44.603 35.3491C44.4921 35.3945 44.3945 35.4317 44.3859 35.4317C44.3666 35.4317 43.3272 34.2132 43.2779 34.1327C43.2581 34.1004 43.4253 33.7144 43.6494 33.2751C43.8735 32.8357 44.1816 32.1648 44.3339 31.7842L44.6109 31.0922L45.3554 31.0573C45.7649 31.0382 46.4354 31.0067 46.8456 30.9875L47.5911 30.9526L47.6648 31.2344C47.7584 31.5932 48.0892 32.0968 48.4057 32.3627C49.3422 33.1494 50.7337 33.1186 51.6247 32.2916C52.1578 31.7968 52.236 31.5878 52.6506 29.5486C52.9829 27.915 53.0157 27.6933 52.9952 27.2195C52.9679 26.5856 52.8017 26.1926 52.3723 25.7464C51.8813 25.2362 51.3406 25.0149 50.585 25.0149C49.6516 25.0149 48.8615 25.5001 48.4311 26.3376C48.3766 26.4437 48.3273 26.5362 48.3216 26.5432C48.3159 26.5501 47.7189 26.3005 46.995 25.9885L45.6788 25.4213L45.6432 24.3225C45.604 23.1157 45.4991 22.2092 45.2766 21.1568C45.1964 20.7779 45.1278 20.4224 45.124 20.3668C45.1193 20.2975 45.2947 20.1456 45.6835 19.8822L46.2499 19.4986L46.5442 19.6929C47.3641 20.2345 48.65 20.2641 49.4897 19.7609C50.4004 19.2152 50.9437 18.0625 50.7718 17.0409C50.7049 16.6435 50.1424 15.0855 49.8874 14.5918C49.5857 14.0074 48.9303 13.4666 48.285 13.2695C47.8331 13.1315 47.0373 13.1324 46.594 13.2715ZM33.6485 13.3261C32.8196 13.526 32.0363 14.058 31.6094 14.7108C31.0836 15.5149 31.0822 16.7104 31.606 17.5116C31.8257 17.8476 32.3418 18.3333 32.693 18.5347C33.4192 18.9511 34.5021 19.1112 35.3737 18.9311C37.0272 18.5894 38.1552 17.162 37.9116 15.7194C37.6176 13.9779 35.6127 12.8524 33.6485 13.3261ZM35.2891 14.9334C36.4958 15.3765 36.6845 16.5131 35.6523 17.1212C35.2365 17.3661 34.977 17.4254 34.447 17.3966C33.8713 17.3653 33.4941 17.2076 33.1621 16.8592C32.9481 16.6346 32.791 16.3191 32.791 16.1138C32.791 15.7878 33.1809 15.2397 33.5456 15.0531C34.0548 14.7925 34.7714 14.7433 35.2891 14.9334ZM30.7406 22.5192C30.5221 22.5712 30.2675 22.8111 30.2016 23.0269C30.0825 23.417 30.2475 23.8163 30.6024 23.9964C30.8317 24.1128 31.7819 24.1081 32.0369 23.9894C32.44 23.8017 32.584 23.2388 32.3259 22.8598C32.1279 22.5688 31.8878 22.4787 31.3302 22.4861C31.0677 22.4896 30.8023 22.5044 30.7406 22.5192ZM14.1131 24.8433C13.6495 25.1207 13.642 25.8967 14.1002 26.1709C14.3568 26.3244 15.4133 26.3346 15.6727 26.1861C15.8657 26.0756 16.0551 25.7509 16.0551 25.5305C16.0551 25.3044 15.8538 24.942 15.6686 24.8345C15.4227 24.692 14.3559 24.698 14.1131 24.8433ZM35.8202 25.0723C33.9293 25.352 32.8795 27.3343 33.7238 29.0305C34.2548 30.0972 35.4623 30.7162 36.657 30.5341C38.0606 30.3202 39.0467 29.19 39.0442 27.7982C39.0428 27.0279 38.7732 26.3829 38.2297 25.8495C37.6018 25.2332 36.6995 24.9422 35.8202 25.0723ZM24.5936 25.7571C23.3104 25.9956 22.1545 27.0592 21.8064 28.3218C21.6755 28.7966 21.6735 29.6626 21.8022 30.1366C22.5212 32.7846 25.8811 33.6764 27.8518 31.7423C28.6027 31.0054 28.9547 30.0955 28.8989 29.0358C28.7858 26.8897 26.768 25.3531 24.5936 25.7571ZM36.5811 26.6748C36.8947 26.76 37.3076 27.1752 37.3948 27.4929C37.5545 28.0749 37.2246 28.6832 36.6282 28.9068C35.7373 29.2407 34.774 28.2964 35.114 27.4225C35.2797 26.9967 35.7912 26.6223 36.216 26.6159C36.2933 26.6148 36.4575 26.6413 36.5811 26.6748ZM25.8305 27.361C26.2738 27.4866 26.6879 27.7845 26.9458 28.1636C27.7895 29.4035 26.9541 31.0682 25.4347 31.175C23.9587 31.2786 22.8757 29.774 23.4854 28.4669C23.9097 27.5575 24.8908 27.0948 25.8305 27.361ZM16.1307 30.0882C15.1118 30.2639 14.2892 30.9329 13.9207 31.8855C13.7507 32.3251 13.7099 33.0339 13.8285 33.488C14.1678 34.7865 15.2302 35.6045 16.5886 35.613C17.2011 35.6169 17.6897 35.4747 18.1891 35.1473C19.8418 34.0643 19.8418 31.6182 18.1891 30.5352C17.6036 30.1514 16.7895 29.9746 16.1307 30.0882ZM17.2134 31.8227C17.9401 32.2407 18.0037 33.3048 17.3306 33.7833C16.7003 34.2314 15.8974 34.0602 15.531 33.3997C15.1677 32.7445 15.5199 31.9139 16.2592 31.6825C16.5127 31.603 16.9408 31.666 17.2134 31.8227ZM33.8831 33.4409C33.5764 33.5776 33.4416 33.7912 33.4408 34.1419C33.4401 34.4662 33.5511 34.6679 33.8183 34.8278C33.9724 34.92 34.1034 34.9352 34.7447 34.9354C35.5518 34.9356 35.7161 34.8934 35.9256 34.632C36.2268 34.2562 36.0802 33.6419 35.6428 33.4471C35.3033 33.2959 34.217 33.292 33.8831 33.4409ZM28.1408 34.801C27.3298 35.0152 26.6923 35.526 26.3481 36.2373C25.6803 37.6173 26.2226 39.1795 27.6023 39.8504C28.0434 40.0649 28.1102 40.0811 28.6574 40.105C29.1446 40.1262 29.3072 40.1108 29.6378 40.0123C30.4097 39.7822 31.1003 39.1569 31.3902 38.4258C31.5826 37.9403 31.6079 37.0705 31.4437 36.5891C31.1332 35.6789 30.3988 35.0146 29.464 34.7983C29.027 34.6971 28.53 34.6981 28.1408 34.801ZM21.5284 35.8731C21.231 35.9633 21.038 36.2155 21.0096 36.5513C20.9795 36.9081 21.0891 37.1513 21.3508 37.3078C21.605 37.4599 22.6188 37.4647 22.903 37.3151C23.3992 37.0539 23.4292 36.3089 22.9567 35.9787C22.7958 35.8663 22.6948 35.8461 22.2343 35.8347C21.9399 35.8273 21.6223 35.8446 21.5284 35.8731ZM29.2844 36.4178C29.7195 36.6118 30.0407 37.1821 29.9516 37.6026C29.7944 38.3446 28.9773 38.7572 28.3258 38.4234C27.727 38.1168 27.5257 37.5208 27.823 36.9352C28.1012 36.3874 28.7226 36.1674 29.2844 36.4178Z" fill="#3E69DF"/>
<path d="M75.616 36.432C79.36 36.432 82.816 34.812 85.228 32.292L81.376 28.836C79.936 30.492 77.884 31.608 75.616 31.608C71.476 31.608 67.948 27.936 67.948 23.616C67.948 19.332 71.476 15.66 75.616 15.66C77.884 15.66 79.936 16.776 81.376 18.432L85.228 14.976C82.816 12.42 79.36 10.836 75.616 10.836C68.524 10.836 62.476 16.668 62.476 23.616C62.476 30.564 68.524 36.432 75.616 36.432ZM97.5144 36.432C103.022 36.432 107.63 31.968 107.63 26.676C107.63 21.384 103.022 16.956 97.5144 16.956C91.9704 16.956 87.3264 21.384 87.3264 26.676C87.3264 31.968 91.9704 36.432 97.5144 36.432ZM97.5144 32.004C94.7064 32.004 92.3664 29.556 92.3664 26.676C92.3664 23.796 94.7064 21.384 97.5144 21.384C100.286 21.384 102.626 23.796 102.626 26.676C102.626 29.556 100.286 32.004 97.5144 32.004ZM116.536 36H121.396L129.352 17.388H123.88L118.984 29.952L113.98 17.388H108.472L116.536 36ZM134.768 14.832C136.316 14.832 137.576 13.536 137.576 11.952C137.576 10.476 136.316 9.144 134.768 9.144C133.148 9.144 131.888 10.476 131.888 11.952C131.888 13.536 133.148 14.832 134.768 14.832ZM132.104 36H137.36V17.388H132.104V36ZM155.845 10.836V20.052C154.369 18.108 152.209 16.956 149.581 16.956C144.613 16.956 141.013 20.988 141.013 26.676C141.013 32.4 144.613 36.432 149.581 36.432C152.209 36.432 154.369 35.28 155.845 33.336V36H161.101V10.836H155.845ZM151.093 32.004C148.177 32.004 146.125 29.808 146.125 26.676C146.125 23.58 148.177 21.384 151.093 21.384C153.865 21.384 155.845 23.58 155.845 26.676C155.845 29.808 153.865 32.004 151.093 32.004ZM170.25 36H175.578V11.268H171.33L163.914 16.236L166.038 19.98L170.25 17.352V36ZM189.44 10.836C184.04 10.836 179.972 14.328 179.972 19.404C179.972 24.3 183.752 27.252 188.324 27.252C190.664 27.252 192.896 26.388 194.444 24.912C193.976 29.088 191.78 31.752 188.576 31.752C186.524 31.752 185.048 30.996 183.536 29.736L181.016 33.768C183.032 35.388 185.516 36.432 188.612 36.432C195.452 36.432 199.952 30.924 199.952 23.22C199.952 16.02 196.676 10.836 189.44 10.836ZM189.872 22.932C187.46 22.932 185.444 21.528 185.444 19.152C185.444 17.172 187.1 15.336 189.728 15.336C192.5 15.336 193.832 17.028 194.3 20.052C193.58 21.816 191.924 22.932 189.872 22.932ZM223.635 31.392C223.275 31.752 222.555 32.004 221.835 32.004C220.863 32.004 220.071 31.14 220.071 29.916V21.636H224.103V17.388H220.071V12.276H215.031V17.388H212.475V21.636H215.031V30.744C215.031 34.092 217.335 36.432 220.611 36.432C222.123 36.432 223.815 35.784 224.895 34.812L223.635 31.392ZM233.443 20.844V17.388H228.187V36H233.443V27.108C233.443 23.616 235.927 21.384 239.815 21.384V16.956C236.971 16.956 234.667 18.432 233.443 20.844ZM251.163 16.956C248.571 16.956 246.015 17.676 243.387 19.008L245.151 22.5C246.627 21.744 248.247 21.168 249.975 21.168C253.035 21.168 254.259 22.896 254.259 24.876V25.236C252.675 24.624 251.019 24.3 249.507 24.3C245.187 24.3 241.767 26.82 241.767 30.492C241.767 34.056 244.827 36.432 248.787 36.432C250.803 36.432 252.927 35.64 254.259 34.128V36H259.335V24.876C259.335 20.016 256.023 16.956 251.163 16.956ZM249.975 32.796C248.175 32.796 246.843 31.86 246.843 30.348C246.843 28.836 248.355 27.72 250.263 27.72C251.703 27.72 253.071 27.972 254.259 28.404V30.132C253.899 31.86 251.991 32.796 249.975 32.796ZM272.873 36.432C275.969 36.432 278.489 35.172 280.325 33.156L276.833 30.204C275.861 31.284 274.349 32.004 272.909 32.004C270.137 32.004 267.833 29.556 267.833 26.64C267.833 23.796 270.137 21.384 272.873 21.384C274.313 21.384 275.789 22.068 276.725 23.112L280.217 20.124C278.417 18.18 275.933 16.956 272.909 16.956C267.401 16.956 262.721 21.384 262.721 26.676C262.721 31.968 267.365 36.432 272.873 36.432ZM301.596 17.388H295.548L288.636 25.416V10.836H283.38V36H288.636V31.428L290.868 29.016L295.476 36H301.524L294.36 25.632L301.596 17.388ZM312.838 31.788C310.642 31.788 309.022 30.42 308.41 28.404H321.838C321.838 21.384 318.418 16.956 312.586 16.956C307.15 16.956 303.01 21.024 303.01 26.64C303.01 32.364 307.33 36.432 312.874 36.432C315.61 36.432 318.814 35.28 320.47 33.552L317.122 30.132C316.114 31.104 314.314 31.788 312.838 31.788ZM312.802 21.6C314.926 21.6 316.294 22.788 316.798 24.624H308.482C309.166 22.752 310.822 21.6 312.802 21.6ZM330.65 20.844V17.388H325.394V36H330.65V27.108C330.65 23.616 333.134 21.384 337.022 21.384V16.956C334.178 16.956 331.874 18.432 330.65 20.844Z" fill="white"/>
</svg>
